<svg viewBox="0 0 1024 1024" xmlns="http://www.w3.org/2000/svg"><path d="M864.837 287c23.78-28.678 39.216-68.923 39.216-113.992 0-81.387-48.38-148.814-110.35-156.867-4.135-.632-8.535 0-12.772 0-25.307 0-48.86 9.748-68.447 26.47L33.513 91.772l624.668 45.233v23.803c-.13 2.168-.218 4.353-.278 6.547l-624.39 45.208 624.47 45.22v30.364l-624.47 45.215L588.89 373.58v8.378c-4.05 10.38-7.582 21.334-10.654 32.748L33.513 454.148l519.404 37.61v38.997L33.513 568.36l520.32 37.68v45.433l-520.32 37.674 604.25 43.756v33.293l-604.25 43.75 619.452 44.857v31.082L33.513 930.732l628.253 45.492 1.518 23.05H890.37l23.712-318.29h89.377c0-152.49-9.748-369.73-138.624-393.978zM678.46 259.263c.04.074.078.15.116.222l-2.055-.362 1.94.14z"/></svg>