<svg height="32" viewBox="0 0 32 32" width="32" xmlns="http://www.w3.org/2000/svg"><path d="m30.83 30.773c-.233.07-.349-.045-.473-.103-3.406-1.623-6.832-3.204-10.115-5.071-.091-.052-.204-.108-.32-.157l-.023-.009c-.559-.237-.816-.158-1.126.378-.126.221-.261.494-.381.774l-.022.057c-.74 1.654-1.474 3.312-2.218 4.966-.057.127-.08.284-.251.391-.273-.571-.546-1.131-.809-1.695q-.958-2.044-1.913-4.091c-.085-.19-.169-.347-.263-.498l.01.018c-.263-.417-.558-.517-1.019-.334-.212.095-.387.187-.555.288l.023-.013c-3.301 1.791-6.633 3.523-9.956 5.261-.063.052-.145.083-.234.083-.01 0-.021 0-.031-.001h.001c-.121-.129.028-.23.072-.328 1.607-3.452 3.185-6.92 5.092-10.223.045-.079.09-.158.127-.241.29-.655.116-1.128-.546-1.42-.614-.27-1.242-.508-1.856-.785-1.351-.608-2.697-1.238-4.045-1.859.062-.218.249-.226.387-.292q2.621-1.253 5.259-2.493c.082-.039.166-.074.247-.109.805-.399.914-.724.476-1.506-1.044-1.879-2.038-3.776-3.025-5.675q-1.168-2.244-2.322-4.497c-.052-.102-.166-.194-.12-.337.166-.076.282.05.402.109 3.435 1.643 6.88 3.268 10.206 5.132.015.009.028.022.045.031.848.455 1.158.359 1.565-.531.835-1.83 1.658-3.668 2.486-5.502.073-.161.102-.348.293-.494.347.764.689 1.512 1.026 2.263q.793 1.762 1.579 3.526c.029.067.059.133.09.199.429.914.764 1.024 1.659.52 3.286-1.856 6.661-3.544 10.026-5.251.091-.046.175-.129.299-.109.073.161-.053.275-.109.394-1.604 3.434-3.193 6.88-5.051 10.185-.009.016-.022.03-.029.046-.442.835-.358 1.136.507 1.529 1.849.842 3.664 1.754 5.485 2.652l.302.156c-.074.204-.278.212-.427.278-1.719.775-3.443 1.54-5.164 2.31-1.092.488-1.192.794-.608 1.826 1.896 3.352 3.598 6.8 5.346 10.251zm-23.258-23.019c-.016-.05-.055-.091-.094-.046s.007.074.056.082c.048.312.236.566.376.835.954 1.856 1.92 3.698 2.887 5.556-1.27.604-2.537 1.208-3.858 1.838 1.31.681 2.602 1.239 3.88 1.821-1.192 2.14-2.203 4.307-3.167 6.494l.095.079c2.1-1.104 4.2-2.207 6.321-3.323l1.866 3.943 1.78-3.957c2.146 1.179 4.311 2.206 6.544 3.218-.012-.071-.027-.133-.045-.193l.003.01c-.988-1.981-1.973-3.962-3.04-5.897-.218-.398-.218-.399.211-.592.828-.369 1.659-.733 2.484-1.107.287-.131.596-.218.915-.463l-3.81-1.876q1.778-3.23 3.267-6.574c-2.218 1.052-4.383 2.141-6.536 3.336l-1.823-4.04c-.624 1.377-1.22 2.691-1.824 4.024-1.92-1.064-3.853-1.983-5.788-2.893-.227-.104-.439-.259-.701-.276z"/><path d="m15.906 12.777c1.75.009 3.165 1.43 3.165 3.181 0 1.757-1.424 3.181-3.181 3.181s-3.181-1.424-3.181-3.181v-.001c.006-1.758 1.432-3.18 3.191-3.18h.007zm.893 3.158c-.012-.483-.406-.871-.891-.871-.492 0-.891.399-.891.891v.022-.001c.019.48.413.863.896.863.015 0 .03 0 .044-.001h-.002c.473-.034.844-.426.844-.905z"/></svg>